<svg width="415" height="1399" viewBox="0 0 415 1399" fill="none" xmlns="http://www.w3.org/2000/svg">
<g opacity="0.04" clip-path="url(#clip0_7_292)">
<path d="M38.4339 837.522C53.1053 783.62 100.38 758.302 145.209 756.669V648.456C117.089 623.547 91.0064 589.654 72.6671 533.302C19.6871 372.413 166.401 238.475 166.401 238.475V642.74C176.59 651.723 187.186 659.89 197.782 666.832C250.354 701.95 326.972 752.994 327.379 838.747C328.194 937.567 256.875 1002.9 165.994 1003.72V1195.23C165.994 1195.23 158.658 1285.07 213.268 1309.16C269.509 1334.07 331.047 1279.35 310.262 1228.31C289.07 1177.27 230.792 1191.56 222.234 1224.64C213.268 1258.12 264.211 1273.64 265.841 1229.94L293.961 1240.56C293.961 1240.56 288.663 1274.05 253.614 1277.31C218.566 1280.99 195.744 1247.5 204.71 1214.02C213.268 1180.53 260.543 1152.77 304.557 1184.21C349.386 1216.06 342.05 1299.77 280.105 1321.01C221.826 1341.01 143.579 1312.43 145.209 1196.46V1002.49C62.4787 993.102 16.8343 917.558 38.4339 837.522ZM94.2667 476.95C93.0441 541.061 115.051 587.204 145.209 621.505V325.862C145.209 325.862 96.3044 378.538 94.2667 476.95ZM234.053 951.042C287.033 916.333 321.674 839.155 277.659 761.569C251.169 714.609 207.97 695.825 166.401 665.199V757.894C183.925 760.344 199.819 766.469 212.046 775.861C259.32 812.612 259.32 879.581 212.046 917.966L187.593 882.848C187.593 882.848 223.864 865.289 217.344 824.863C212.861 796.279 191.669 779.128 166.401 773.411V968.601C192.484 968.601 217.751 961.659 234.053 951.042ZM145.209 967.376V771.369C138.281 771.369 130.945 772.186 124.017 773.819C83.2632 783.62 36.3962 840.38 66.1465 910.616C81.2255 945.734 112.606 962.476 145.209 967.376Z" fill="black"/>
<path d="M208.378 629.672V220.508H231.2V620.689C420.298 691.333 409.702 838.747 390.548 912.658C377.914 960.843 386.065 982.077 393.4 991.06C386.88 988.202 379.544 986.569 372.208 986.569C343.681 986.569 320.451 1009.84 320.451 1038.43C320.451 1067.01 343.681 1090.29 372.208 1090.29C380.359 1090.29 388.102 1088.25 395.031 1084.98C367.318 1125 429.671 1179.72 411.74 1269.15C392.585 1363.88 304.964 1399 304.964 1399C352.239 1369.19 445.158 1243.42 338.383 1114.38C236.905 991.877 375.061 977.585 373.431 826.496C371.393 675.407 208.378 629.672 208.378 629.672Z" fill="black"/>
<path d="M224.272 244.6H250.354V177.223C250.354 177.223 254.837 146.188 220.604 103.312C185.148 59.2104 194.929 31.4427 207.97 20.4173C218.974 11.0253 248.724 4.08342 262.988 27.3593C277.659 50.6351 253.207 74.3193 236.498 67.3773C219.381 60.4354 231.607 35.1179 249.132 45.7349C249.132 45.7349 241.388 31.8511 227.532 33.8928C213.676 36.3429 203.895 57.1686 215.306 73.5026C227.939 91.4699 258.505 88.2031 272.361 71.8692C286.218 55.5353 286.218 22.8674 261.358 8.1669C238.535 -5.30858 214.083 -1.63345 196.151 14.2921C179.85 28.9926 172.107 63.7022 196.559 101.679C221.011 139.655 223.864 164.972 223.864 175.59V244.6H224.272Z" fill="black"/>
<path d="M234.46 207.032H271.139V206.216C271.139 204.174 272.769 202.132 275.214 202.132C277.252 202.132 279.289 203.766 279.289 206.216V207.032H287.848V188.248C320.451 182.94 335.53 208.257 322.489 224.183C309.447 239.7 287.848 233.575 287.848 233.575V215.608H279.289V216.833C279.289 218.874 277.659 220.916 275.214 220.916C273.176 220.916 271.139 219.283 271.139 216.833V215.608H234.46V207.032Z" fill="black"/>
<path d="M231.2 142.513H271.139V141.697C271.139 139.655 272.769 137.613 275.214 137.613C277.252 137.613 279.289 139.247 279.289 141.697V142.513H287.848V123.729C320.451 118.421 335.53 143.738 322.489 159.664C309.447 175.181 287.848 169.056 287.848 169.056V151.089H279.289V152.314C279.289 154.355 277.659 156.397 275.214 156.397C273.176 156.397 271.139 154.764 271.139 152.314V151.089H231.2V142.513Z" fill="black"/>
<path d="M126.055 160.889V179.673H134.613V178.856C134.613 176.815 136.243 174.773 138.688 174.773C140.726 174.773 142.764 176.406 142.764 178.856V179.673H166.401V188.248H142.764V189.473C142.764 191.515 141.134 193.557 138.688 193.557C136.651 193.557 134.613 191.923 134.613 189.473V188.248H126.055V206.216C126.055 206.216 104.455 212.341 91.4139 196.824C78.3727 181.306 93.4516 155.58 126.055 160.889Z" fill="black"/>
<path d="M126.055 96.3701V115.154H134.613V114.337C134.613 112.296 136.243 110.254 138.688 110.254C140.726 110.254 142.764 111.887 142.764 114.337V115.154H166.401V123.729H142.764V124.954C142.764 126.996 141.134 129.038 138.688 129.038C136.651 129.038 134.613 127.405 134.613 124.954V123.729H126.055V141.697C126.055 141.697 104.455 147.822 91.4139 132.305C78.3727 116.787 93.4516 91.0616 126.055 96.3701Z" fill="black"/>
<path d="M-158.408 744.418H369.356V757.894H-158.408V744.418Z" fill="black"/>
<path d="M-158.408 809.346H386.88V822.821H-158.408V809.346Z" fill="black"/>
<path d="M-158 874.273H372.208V887.748H-158V874.273Z" fill="black"/>
<path d="M-158.408 936.342H356.314V949.817H-158.408V936.342Z" fill="black"/>
<path d="M-158 1002.49H308.225V1015.97H-158V1002.49Z" fill="black"/>
</g>
<defs>
<clipPath id="clip0_7_292">
<rect width="573" height="1399" fill="white" transform="matrix(-1 0 0 1 415 0)"/>
</clipPath>
</defs>
</svg>
