<svg width="651" height="1255" viewBox="0 0 651 1255" fill="none" xmlns="http://www.w3.org/2000/svg">
<g opacity="0.05" clip-path="url(#clip0_8_310)">
<path d="M221.102 527.92C212.07 510.961 201.707 496.228 181.753 482.964C270.134 602.763 195.681 649.184 234.941 710.281C224.63 653.101 252.386 586.337 221.102 527.92ZM209.399 527.491C209.365 527.387 209.286 527.261 209.252 527.158C209.286 527.261 209.32 527.364 209.399 527.491ZM208.968 526.642C208.923 526.504 208.855 526.412 208.81 526.275C208.855 526.412 208.889 526.515 208.968 526.642ZM233.53 704.23C233.563 704.448 233.563 704.448 233.53 704.23V704.23Z" fill="black"/>
<path d="M131.21 733.736C77.949 679.4 115.152 888.8 75.7808 837.49C100.143 843.596 70.7205 794.7 69.5672 833.319C126.731 934.48 92.4558 686.871 130.805 738.439C111.954 735.059 139.24 770.22 131.21 733.736Z" fill="black"/>
<path d="M255.861 862.212C211.156 892.521 330.259 1118.49 167.794 1123.76C338.309 1155.5 232.779 865.132 255.861 862.212ZM254.421 863.636C254.374 863.728 254.374 863.728 254.421 863.636V863.636ZM170.474 1124.25C170.348 1124.22 170.348 1124.22 170.474 1124.25V1124.25Z" fill="black"/>
<path d="M162.604 226.091C156.703 219.38 148.621 217.192 136.059 212.512C137.288 214.166 138.446 216.186 151.578 227.725C146.816 226.468 147.259 225.142 131.255 221.019C134.326 225.268 168.946 252.769 162.604 226.091Z" fill="black"/>
<path d="M21.7739 810.327C4.18761 812.435 -4.38957 810.715 -28.6015 808.559C-14.289 817.997 2.17419 826.198 21.7739 810.327ZM17.0692 811.107C17.0003 811.13 16.9202 811.118 16.8512 811.141C16.9202 811.118 17.0003 811.13 17.0692 811.107Z" fill="black"/>
<path d="M143.125 1137.9C-165.621 1109.46 19.9825 841.994 -26.3853 809.965C-24.0349 874.287 -65.8006 941.035 -51.8737 1009.94C-31.287 1103.93 49.1838 1163.52 143.125 1137.9ZM-26.0026 811.249C-25.9914 811.283 -25.9914 811.283 -26.0026 811.249V811.249ZM-28.1084 843.818C-28.1323 843.979 -28.2018 844.116 -28.2256 844.276C-28.1673 844.104 -28.1323 843.979 -28.1084 843.818Z" fill="black"/>
<path d="M132.588 1136.14C131.777 1135.64 130.826 1135.42 129.864 1135.28C141.031 1137.22 97.7025 1148.57 104.184 1135.28C87.3694 1147.19 136.771 1155.07 132.588 1136.14Z" fill="black"/>
<path d="M183.51 1126.07C169.714 1131.13 150.925 1126.78 133.089 1134.76C146.814 1134.26 168.593 1143.19 183.51 1126.07Z" fill="black"/>
<path d="M125.186 103.336C122.823 99.5019 123.382 93.6433 106.566 85.0635C119.958 95.185 125.217 147.546 94.556 146.551C107.552 143.129 114.419 128.575 112.38 115.951C108.012 126.258 95.2791 142.239 77.4011 141.13C124.567 132.409 125.536 48.1838 55.422 93.7547C42.2461 104.778 36.8654 109.665 31.9373 132.229C-3.09294 148.054 19.5362 171.106 50.2664 184.533C29.7804 198.98 39.6563 225.032 68.2707 216.757C69.6627 307.254 103.257 225.474 108.88 286.742C114.028 338.53 120.692 389.936 108.362 440.788C-77.4143 461.43 -4.54398 568.716 -5.45183 662.558C-7.34495 662.836 -9.21618 663.297 -11.0191 663.85C-9.95986 665.102 -5.2626 661.506 -2.86243 669.06C-2.93567 667.789 -2.98572 666.472 -2.99005 665.179C44.527 678.015 14.7052 780.383 -3.3645 805.694C31.8633 785.233 58.7813 660.621 -2.91595 662.146C-0.684293 656.615 4.89613 667.469 46.1984 651.453C46.1858 651.648 46.1733 651.843 46.1495 652.003C92.1284 642.339 81.0285 850.472 23.752 800.88C83.6119 876.743 119.993 630.843 47.1939 649.718C87.8469 585.163 -10.8741 448.605 119.093 449.077C140.296 518.645 123.696 618.278 149.84 696.168C150.159 696.558 151.198 695.189 151.551 697.663C178.687 674.866 171.828 760.565 177.623 780.337C163.213 776.187 146.888 778.186 131.119 789.679C144.387 788.947 178.541 773.942 181.435 800.112C181.629 796.049 181.744 798.03 181.499 788.551C188.533 791.501 196.618 780.662 199.274 804.129C196.692 806.728 174.647 802.452 135.71 794.839C144.847 798.966 163.927 806.766 178.795 813.128C170.579 837.303 171.498 863.968 166.936 892.886C153.443 890.835 138.664 893.242 127.1 900.804C127.513 900.782 127.593 900.909 129.452 900.528C129.887 900.575 130.323 900.509 130.771 900.476C119.23 930.921 143.582 967.958 137.903 1006.04C100.773 953.769 68.7841 964.788 17.2567 988.955C12.5974 906.765 54.9458 838.302 22.702 802.1C34.2567 866.68 -6.68854 938.492 7.01469 1008.46C13.3962 1075.65 97.93 1146.82 154.376 1124.62C148.049 1124.41 141.724 1123.85 135.518 1122.5C136.768 1122.47 138.006 1122.4 139.233 1122.31C136.145 1121.03 132.859 1120.21 129.678 1119.23C137.157 1120.51 144.945 1119.71 151.977 1116.95C109.27 1117.39 35.4928 1035.27 28.9256 999.641C22.1014 1033.41 80.2787 1096.35 113.049 1114.02C67.5049 1094.74 22.4817 1045.52 17.634 997.439C20.634 998.093 23.7425 997.798 26.7156 997.09C2.3282 995.562 78.3261 951.643 137.611 1007.13C139.007 1042.82 136.671 1088.07 161.299 1120.71C143.344 1075.48 151.266 1021.43 146.374 966.814C148.666 939.934 101.281 888.624 159.892 902.128C159.48 902.034 159.079 901.975 158.667 901.882C160.911 902.327 163.191 902.646 165.471 902.965C164.853 906.9 164.246 910.87 163.548 914.793C160.518 913.349 153.105 922.978 164.02 924.846C163.824 924.948 163.675 925.074 163.479 925.176C175.88 923.662 150.887 898.986 181.843 904.835C181.016 909.181 180.43 913.563 180.131 918.003C169.199 914.921 178.076 943.396 182.057 920.038C181.064 917.126 180.688 902.243 190.679 905.366C191.831 906.321 176.388 941.74 190.54 928.34C192.771 925.133 183.429 903.972 199.334 905.347C174.341 972.043 160.156 1049.59 166.68 1124.2C185.669 1094.25 171.677 1055.87 178.517 1019.24C183.109 978.539 203.349 948.441 200.561 905.25C200.917 905.285 201.249 905.253 201.593 905.254C201.184 904.588 200.171 905.339 199.697 901.914C199.521 902.658 199.505 903.425 199.444 904.169C198.941 903.8 196.882 903.104 193.315 901.188C194.844 896.307 195.663 891.239 196.643 886.195C200.222 887.802 204.034 888.838 207.578 890.571C205.242 890.194 202.952 889.611 200.603 889.315C210.588 897.773 221.576 888.572 197.067 884.114C198.795 876.348 200.191 868.502 201.919 860.737C199.558 864.824 210.822 861.589 208.943 886.238C209.06 885.895 209.153 885.598 209.27 885.255C209.188 885.587 209.06 885.895 208.978 886.227C210.226 882.352 211.131 878.361 211.921 874.369C221.629 880.937 230.611 855.14 214.836 852.998C215.616 846.763 216.166 840.526 216.877 834.314C221.619 843.309 238.793 872.301 252.969 850.362C237.143 865.987 218.072 821.315 219.984 801.073C219.321 802.775 218.784 804.513 218.293 806.274C219.338 805.855 214.225 803.76 221.308 799.991C214.147 801.31 206.751 801.678 199.802 803.994C199.84 799.221 199.66 794.481 199.285 789.728C201.498 789.498 203.614 790.48 225.516 799.907C218.91 808.623 196.049 680.22 232.011 713.565C232.141 702.553 217.086 696.671 207.038 710.135C161.432 430.056 178.883 294.607 128.706 213.246C128.553 216.039 128.813 218.81 129.004 221.604C116.1 216.693 117.537 203.501 112.54 186.514C116.011 191.165 122.922 201.888 127.709 209.041C129.732 212.301 131.847 215.492 133.996 218.673C123.07 152.401 124.711 185.228 60.508 136.041C61.6367 139.251 64.5875 134.285 80.2414 152.006C79.9578 149.395 78.7908 146.882 77.2894 144.747C106.445 163.031 134.576 148.858 125.186 103.336ZM70.2343 93.66C130.863 57.2164 79.8233 171.682 61.0966 114.557C83.1491 144.463 104.595 86.9665 70.2343 93.66ZM102.952 168.671C110.097 172.308 120.594 175.113 122.102 184.37C118.61 179.42 117.018 181.199 102.952 168.671ZM134.443 239.475C147.383 293.964 153.515 360.627 161.837 419.068C153.02 361.094 143.984 301.172 134.443 239.475ZM113.231 242.163C112.286 240.911 116.364 241.593 117.76 216.987C172.502 343.7 171.979 670.932 202.324 704.253C202.154 699.776 201.789 695.287 201.504 690.81C201.568 697.988 210.717 718.679 186.898 693.161C166.09 541.574 151.102 388.651 128.002 234.959C142.857 384.917 166.671 538.108 184.032 691.053C177.83 684.821 169.076 696.413 168.909 668.435C151.473 518.752 140.137 379.181 120.343 228.938C132.146 375.173 152.088 527.844 166.622 675.659C170.207 686.711 164.719 688.129 151.533 694.698C138.896 543.823 136.532 390.647 116.019 237.63C114.042 248.943 112.832 260.385 112.367 271.888C109.916 267.321 106.948 263.038 103.496 259.142C105.384 259.78 107.121 260.772 108.673 262.015C100.072 241.83 86.8631 279.525 70.177 216.17C74.715 216.51 80.3415 208.648 95.8342 218.195C93.8554 215.301 91.3704 212.726 88.435 210.756C91.0773 211.832 93.8938 212.508 96.6883 213.002C96.4146 212.748 95.5357 212.046 94.301 211.423C79.5824 204.936 91.5959 188.505 47.8005 176.428C54.2788 172.096 63.519 167.924 74.1513 175.332C73.8669 174.93 73.4904 174.596 73.1484 174.251C74.7483 175.174 76.3714 176.051 77.9136 177.031C64.455 166.589 56.9319 142.127 36.843 132.411C43.2308 119.538 55.5711 108.294 68.6443 95.0953C68.5059 95.255 68.3674 95.4146 68.2634 95.563C83.1625 88.0507 80.8403 126.595 65.4996 108.2C72.6089 112.078 79.9502 98.8543 66.5706 99.0126C67.2785 99.5423 68.1486 99.7522 68.8796 100.236C66.724 100.295 64.6548 101.317 63.1444 102.878C63.4796 102.387 63.6318 101.804 63.8411 101.279C28.0247 155.678 116.261 156.424 113.231 242.163ZM68.9592 100.363C70.9211 102.157 72.9174 106.035 65.3606 106.379C65.5693 103.873 66.8649 101.773 68.9592 100.363ZM51.9694 204.161C57.553 189.533 65.9749 190.314 82.9807 208.202C75.9027 204.885 61.3256 212.216 51.9694 204.161ZM27.8049 153.96C27.1749 135.161 47.7928 154.987 56.8381 165.353C47.6925 168.999 32.5882 170.065 27.8049 153.96ZM111.314 441.877C117.853 434.82 120.418 425.066 121.81 415.812C122.541 426.655 123.353 437.511 124.084 448.355C120.017 445.842 115.718 443.67 111.314 441.877ZM194.673 752.962C192.491 736.995 190.562 720.982 188.414 705.004C191.424 706.036 195.627 710.943 203.991 707.706C204.616 721.136 194.737 737.21 197.347 756.58C196.85 755.181 195.618 754.099 194.673 752.962ZM212.762 788.471C211.337 778.655 208.693 761.392 209.82 746.206C211.52 758.027 213.606 776.73 218.421 793.396C216.654 791.614 214.772 789.946 212.762 788.471ZM181.004 780.524C178.387 754.034 175.101 726.432 171.887 695.91C192.542 698.623 186.651 729.539 191.125 749.821C185.201 738.737 170.909 756.829 183.95 761.923C189.324 747.821 191.241 755.648 192.933 781.412C188.981 780.88 185.004 780.736 181.004 780.524ZM210.976 858.682C210.045 848.627 206.478 838.675 211.905 823.222C215.684 830.21 211.763 844.788 210.976 858.682ZM207.704 811.802C206.914 813.699 212.889 815.282 207.683 825.825C208.165 823.801 206.755 825.786 206.446 809.014C206.59 810.034 207.377 810.804 207.704 811.802ZM213.354 866.053C213.449 865.412 213.533 864.737 213.617 864.062C214.569 866.036 216.197 868.092 218.418 868.697C217.651 868.568 216.088 871.365 213.354 866.053ZM169.238 893.274C172.675 868.838 176.107 841.128 179.425 813.302C183.979 814.742 189.659 816.003 194.086 813.562C193.595 838.023 188.934 868.269 183.421 897.195C178.88 895.332 174.06 894.131 169.238 893.274ZM189.415 883.004C192.099 868.26 194.101 850.273 196.18 830.776C195.356 834.665 206.849 875.194 189.415 883.004ZM-2.64022 659.96C21.5302 574.109 -61.6131 504.393 62.2956 453.908C-21.3865 542.015 120.316 644.867 -2.64022 659.96ZM186.029 898.168C187.203 893.251 188.4 888.288 189.367 883.324C194.052 883.997 193.965 887.454 191.371 900.378C189.621 899.58 187.814 898.84 186.029 898.168Z" fill="black"/>
<path d="M352.691 70.5381C279.099 79.4277 404.51 -70.8826 -38.1876 837.982C-94.4026 951.211 -151.966 1063.59 -208.583 1181.18C-188.423 1202.87 -181.381 1173.36 -165.618 1140.09C-114.486 1175.12 -131.909 1164.23 -81.1589 1064.94C-80.9645 1060.88 -91.0547 1050.82 -97.8535 1063.37C-109.177 1096.1 -122.237 1086.06 -117.044 1042.54C-100.972 1017.66 -86.0826 984.972 -72.9834 952.531C-73.3436 953.41 -73.5779 954.325 -73.7891 955.194C-73.4658 954.784 -72.4133 953.105 -71.6365 951.518C60.9204 675.993 196.208 395.993 310.518 107.178C327.01 56.1038 339.058 145.699 352.691 70.5381ZM-134.711 1115.29C-138.348 1109.55 -120.138 1098.29 -120.601 1117.83C-122.568 1121.14 -130.912 1120.71 -134.711 1115.29Z" fill="black"/>
<path d="M335.915 71.2767C334.232 70.7999 336.383 71.5421 329.019 70.1472C332.857 72.7742 337.892 72.4187 341.706 75.0914C339.835 73.3431 341.498 73.2932 335.915 71.2767ZM341.032 74.6649C341.032 74.6649 341.077 74.688 341.032 74.6649V74.6649Z" fill="black"/>
<path d="M335.545 117.522C201.35 413.542 26.3885 790.532 -76.1778 1051.5C60.4908 741.379 204.182 432.076 335.545 117.522Z" fill="black"/>
</g>
<defs>
<clipPath id="clip0_8_310">
<rect width="1031.71" height="879.319" fill="white" transform="translate(329.567) rotate(71.8499)"/>
</clipPath>
</defs>
</svg>
