<?xml version="1.0" encoding="utf-8"?>
<!-- Generator: Adobe Illustrator 24.2.1, SVG Export Plug-In . SVG Version: 6.00 Build 0)  -->
<svg version="1.1" id="Layer_1" xmlns="http://www.w3.org/2000/svg" xmlns:xlink="http://www.w3.org/1999/xlink" x="0px" y="0px"
	 viewBox="0 0 595.2 174.4" style="enable-background:new 0 0 595.2 174.4;" xml:space="preserve">
<style type="text/css">
	.st0{fill:#FFFFFF;}
	.st1{fill:#681D33;}
</style>
<polygon class="st0" points="0,0.1 0,81 140.3,81 140.3,174.4 454.7,174.4 454.7,80.6 595.2,80.6 595.2,0.1 "/>
<path class="st1" d="M200.7,60.5h-40.3V20.3h40.3V60.5z M202.1,18.9h-43.1v43h43.1V18.9z"/>
<path class="st1" d="M434.6,60.5h-40.3V20.3h40.3V60.5z M436,18.9h-43v43h43V18.9z"/>
<path class="st1" d="M60.2,60.5H20V20.3h40.3V60.5z M61.6,18.9h-43v43h43V18.9z"/>
<path class="st1" d="M153.9,60.5h-40.3V20.3h40.3V60.5z M155.3,18.9h-43.1v43h43.1V18.9z"/>
<path class="st1" d="M107.1,60.5H66.8V20.3h40.3V60.5z M108.5,18.9H65.4v43h43.1V18.9z"/>
<path class="st1" d="M575,60.5h-40.3V20.3H575V60.5z M576.4,18.9h-43v43h43V18.9z"/>
<path class="st1" d="M247.5,60.5h-40.2V20.3h40.2V60.5z M248.9,18.9h-43v43h43V18.9z"/>
<path class="st1" d="M294.3,60.5H254V20.3h40.3V60.5z M295.7,18.9h-43.1v43h43.1V18.9z"/>
<path class="st1" d="M341.1,60.5h-40.3V20.3h40.3V60.5z M342.5,18.9h-43v43h43V18.9z"/>
<path class="st1" d="M387.8,60.5h-40.3V20.3h40.3V60.5z M389.2,18.9h-43.1v43h43.1V18.9z"/>
<path class="st1" d="M481.4,60.5h-40.3V20.3h40.3V60.5z M482.8,18.9h-43.1v43h43.1V18.9z"/>
<path class="st1" d="M528.2,60.5h-40.3V20.3h40.3V60.5z M529.6,18.9h-43.1v43h43.1V18.9z"/>
<path class="st1" d="M434.6,154.1h-87.1v-87h87.1V154.1z M435.9,65.7h-89.8v89.8h89.8V65.7z"/>
<path class="st1" d="M341.1,154.1h-87v-87h87V154.1z M342.5,65.7h-89.8v89.8h89.8V65.7z"/>
<path class="st1" d="M247.5,154.1h-87v-87h87V154.1z M248.9,65.7h-89.8v89.8h89.8V65.7z"/>
<path class="st1" d="M454.8,174.3H140.3V81H0V0h595.2v80.6H454.8V174.3z M143.4,171.1h308.2V77.4h140.5V3.1H3.1v74.7h140.3V171.1z"
	/>
<path class="st1" d="M447.9,167.5H147.1V74.3H6.7V6.9h581.7v67H447.9V167.5z M149.6,165h295.9V71.4h140.5V9.3H9.1v62.5h140.4V165z"
	/>
<path class="st1" d="M441.8,161.3H153.3V67.8H12.8V13.1h569.5v54.7H441.8V161.3z M155.4,159.2h284.3V65.7h140.5V15.2H14.9v50.5
	h140.5V159.2z"/>
<polygon class="st1" points="31.8,27.4 35.7,27.4 35.7,49.7 48.4,49.7 48.4,53.4 31.8,53.4 "/>
<polygon class="st1" points="125.5,27.4 142.1,27.4 142.1,31.2 129.4,31.2 129.4,38.6 134.6,38.6 134.6,42.1 129.4,42.1 129.4,49.7 
	142.1,49.7 142.1,53.4 125.5,53.4 "/>
<polygon class="st1" points="78.6,27.4 95.2,27.4 95.2,31.2 82.6,31.2 82.6,38.6 87.7,38.6 87.7,42.1 82.6,42.1 82.6,49.7 
	95.2,49.7 95.2,53.4 78.6,53.4 "/>
<polygon class="st1" points="546.5,27.4 563.2,27.4 563.2,31.2 550.5,31.2 550.5,38.6 555.6,38.6 555.6,42.1 550.5,42.1 550.5,49.7 
	563.2,49.7 563.2,53.4 546.5,53.4 "/>
<polygon class="st1" points="225.5,30.9 218.3,30.9 218.3,27.4 236.5,27.4 236.5,30.9 229.4,30.9 229.4,53.4 225.5,53.4 "/>
<path class="st1" d="M264.9,27.4h4v16.7c0,3.6,2.2,5.5,5.2,5.5c3,0,5.3-1.9,5.3-5.5V27.4h4v17.2c0,5.4-4.1,9-9.3,9
	c-5.1,0-9.2-3.6-9.2-9V27.4z"/>
<polygon class="st1" points="311.2,27.4 314.9,27.4 326.7,45.9 326.7,45.9 326.7,27.4 330.7,27.4 330.7,53.4 327,53.4 315.2,34.9 
	315.1,34.9 315.1,53.4 311.2,53.4 "/>
<path class="st1" d="M367.7,39.1h9.2v5.3c0,5.1-4.1,9.2-9.3,9.2c-4.1,0-6.9-2.4-8.2-4.7c-0.9-1.5-1.1-2.3-1.1-8.5
	c0-6.3,0.3-7,1.1-8.6c1.2-2.3,4-4.7,8.2-4.7c4.9,0,8.3,3.5,9.1,7.7h-4.2c-0.6-2-2.5-3.8-4.9-3.8c-1.9,0-3.2,0.9-4,1.9
	c-1,1.3-1.3,2.1-1.3,7.4s0.3,6,1.3,7.4c0.8,1,2.2,1.9,4,1.9c2.9,0,5.3-2.3,5.3-5.5v-1.3h-5.3V39.1z"/>
<path class="st1" d="M466.2,47.6h-9.8l-2,5.8h-4.2l9.5-26h3.3l9.5,26h-4.2L466.2,47.6z M465.1,44.1l-3.8-11.4h-0.1l-3.8,11.4H465.1z
	"/>
<polygon class="st1" points="498,27.4 502.1,27.4 508.1,47.2 508.1,47.2 514,27.4 518.2,27.4 509.6,53.4 506.6,53.4 "/>
<path class="st1" d="M392.9,101.2c-3.6,0.1-6.8,0.4-9.1,0.7c-0.3,5.1-0.3,13.3-0.2,25c0.1,4.2-0.3,6.9-0.8,8.9
	c-0.8,2.9-2.7,3-3.7-0.2c-1.2-3.8-1.2-5.4-0.1-9.2c0.9-3.5,1.5-8.5,1.8-20.7c-4,9.2-11.7,17.2-19.2,21c-1.7,0.9-2.6,0.3-0.8-1.1
	c9.6-8.3,16.9-18.9,18.1-22.9c-3.1,0.7-6.6,1.9-11.6,3.5c-2.5,0.8-3.1,0.5-5.6-1.5c-1.5-1.2-1-1.9,0.3-1.9
	c3.4-0.1,12.1-1.3,18.9-2.6c0-6.2-0.7-8.5-1.6-10.1c-3,1-5.9,1.9-7.1,1.9c-2.4,0.2-2.7-0.3-0.7-1.3c7.9-3.9,12.4-7,13.3-8.5
	c1-1.8,1.8-2,5.7,0.1c3.2,1.6,3,2.8,0.6,3.3c-1,0.2-3.7,1.1-4.5,1.6c-1.1,0.6-3.3,1.4-5.7,2.3c4.1,1,4.6,1.5,4,4
	c-0.3,1.2-0.7,3.6-0.9,6c2.2-0.5,4-0.9,5.1-1.3c2.2-0.7,4.3-0.8,6,0.3C396.6,99.6,395.5,101,392.9,101.2 M390.3,116
	c-1.4-1.2-2.9-2.7-5-5.4c-1.2-1.5-1-1.8,0.7-1.6c4.6,0.5,6.7,2,7.1,4.8C393.5,116.4,392.1,117.4,390.3,116 M404.9,110.4
	c0.3,5.8-0.7,8.5-1.9,8.5c-1.6,0-3.1-3.6-2.6-5.6c1-3.7,1-8.8,0.6-12.9c-0.2-3.1-0.8-5.4-1.6-6.6c-1-1.8-0.1-2.5,3-1.1
	c2.8,1.2,3.3,2.1,2.8,4C404.7,98.5,404.8,107.5,404.9,110.4 M415.7,139.8c-1.4,1.6-2.3,1.5-3.1,0c-1.8-3.2-4-6.4-6.3-8.7
	c-1.3-1.3-0.8-2,1-1.3c5.4,2,6.6,1.6,6.8-0.4c0.4-3,0.7-12.3,0.6-22.1c-0.1-9.6-0.8-25-2.9-27.4c-2.1-2.5-0.4-3.5,3.6-1.5
	c4.6,2.3,4.6,4.2,3.2,6.4c-0.6,0.9-0.7,2-0.6,10.9c0.1,9.8,0.5,18.4,0.8,27.4C419.2,132,418.8,136.1,415.7,139.8"/>
<path class="st1" d="M266.1,136.1c-2.2,0.5-2.7-0.5-0.2-1.7c9.1-4.2,20.8-13.4,25.1-20.3c-2.5,0.2-4.8,0.5-6.8,0.7
	c-0.1,2.7-1.6,3-2.7,0.4c-4.2-10.7-5.7-13.9-7.5-15.5c-1.8-1.6,0.5-3.7,5-1.5c4-0.6,9.2-1.5,14.2-2.4v-5.4
	c-7.1,1.1-10.3,1.1-11.7,0.3c-1.7-0.9-1.7-1.3,0.5-1.6c1.7-0.2,7.6-1.5,11-2.3c-0.3-6.4-1-8.5-2.2-9.9c-1.6-1.9-0.7-3.4,2.1-2.4
	c5.7,2.1,6.1,3.3,4.8,6.1c-0.3,0.6-0.6,2.6-0.8,5c6.4-1.8,10.5-2,12-1.3c1.8,0.7,1.9,1.4-0.5,2.3c-2.6,1.2-6.3,2.2-11.8,3.2
	c-0.2,1.7-0.2,3.5-0.2,5.3c5.3-1,9.5-1.9,10.9-2.3c2.6-0.7,3.1-0.6,9,2.5c1.5,0.7,1.6,2-0.2,3.5c-1.2,0.9-1.6,1.8-3.7,7.3
	c-2,4.8-2.2,5.3-3.4,7.4c-1.2,1.8-2.2,1.8-3.1-1c-2,0.1-5.6,0.5-9.5,0.9v0.8c15.5,11.4,19.4,13.5,34.4,16.2c2.5,0.5,2.5,1.7-0.1,2.1
	c-13.8,2.3-14.8,1.8-18-0.9c-6.9-5.8-9.9-8.5-16.3-14.9c0,8.3,0.1,12.4,0.1,13.5c0.2,8.8,0.2,10.2-1.1,13.1
	c-0.5,1.3-1.7,1.3-2.6-0.1c-2.2-3.9-2.3-4.7-1.6-6.9c0.9-3,1.3-4.9,1.6-18.3C285.6,127,274.5,134,266.1,136.1 M284.9,106.3
	c-1.5-0.9-1.5-1.2,0.3-1.4c0.9-0.1,4.4-0.9,7.8-1.7c0-1.5,0.1-3.1,0.1-4.9c-3.6,0.5-9.5,1.4-13,2.1c0.9,2.4,2.2,6.5,3.6,12.3
	c3.8-0.6,6.8-1.1,9.2-1.4v-4.7C287.9,107.2,286.1,107,284.9,106.3 M303.6,102c1.8,1,1.7,1.6-1.1,2.4c-2.8,0.9-4.8,1.3-6.3,1.6v4.7
	c4.4-0.7,6.5-0.9,10-0.9c1.2-3.5,2.2-7.5,2.4-11c0.2-1.9-0.6-2.4-2.2-2.3c-1.8,0.1-5.6,0.5-10,1.3v4.5
	C299.6,101.5,302.2,101.3,303.6,102"/>
<path class="st1" d="M186.5,105.7c1.5,1.8,1.7,3.7,1.6,5.6c-0.1,1.6-0.2,8.4-0.2,17.6c0,2.3-0.9,6.9-1.6,8.2
	c-0.7,1.4-1.6,1.6-2.5,0.2c-1.4-2.3-2-4.3-0.9-7.7c1.3-4.1,2.4-15.2,1.9-21.7c-4.7,6.6-12.3,13.3-16.8,15.2
	c-1.9,0.9-2.2-0.3-0.7-1.5c3.8-3.2,10.6-10.5,14.4-16.4c4.3-6.5,5.3-8.5,5.1-10.3c-0.2-2.1,1.2-2.6,3.4-0.1c2,2.3,2.2,3.2,1.5,4
	C190.9,99.8,188.6,102.6,186.5,105.7 M188.3,87.9c-3.8,4.1-8,6.8-11.1,8.2c-1.7,0.7-2.5-0.3-1.1-1.4c2.5-1.8,6.1-5.3,7.4-7.3
	c4-5.4,4.6-6.8,4.2-8.9c-0.3-1.6,1.5-2.2,4.7,0.3c2.4,1.9,2.6,3.3,1.2,4.3C192.6,83.7,190.8,85.2,188.3,87.9 M212.9,121.7
	c-6.1,1.6-12.5,3.7-15.7,5c-2.8,1.2-3.6,1.1-5.8-0.3c-1.5-1-1.8-2.2,0.1-2.5c2-0.2,6-0.9,10.5-1.9l0.1-6.6c-3.5,0.8-6.2,0.8-7.3,0.4
	c-1.5-0.6-1.6-1.5,0.3-2c1.4-0.3,4.6-1.2,7.1-2c-0.2-3.5-0.6-5.7-1.4-7.3c-1.3,0.4-2.4,0.9-3.2,1.1c-4,1.5-4.5,1.4-6.6,0.3
	c-0.9-0.5-1.1-1.5,0.3-1.7c2-0.4,7.1-1.9,11.5-3.1v-5.6c-2.9,0.5-4.9,0.5-6,0c-1.5-0.6-1.4-1.6,0.5-1.9c1.3-0.2,3.6-0.8,5.6-1.4
	c0-11.1-0.5-13.2-1.8-14.5c-2.1-2.2-0.9-3.7,3.7-1.4c3.3,1.7,3.7,2.2,2.9,4.1c-0.5,1.5-1.4,6.1-1.6,10.7c2.4-1,4.1-1,5.3-0.8
	c1.9,0.4,2.2,1.5-0.2,2.5c-1.8,0.8-3.6,1.4-5.1,1.9l-0.1,5.5c0.9-0.3,1.8-0.5,2.4-0.8c2.2-0.8,4.4-1.2,5.4-1c2.2,0.5,2,2.4-0.7,2.9
	c-2,0.4-6.6,1.6-10.4,2.7c3.6,1.7,3.9,2.8,3.3,4.5c-0.2,0.5-0.2,1.1-0.2,2c2-0.8,3.9-1.1,5-0.8c1.9,0.5,1.8,2-0.4,3
	c-1.6,0.8-3.3,1.3-4.8,1.8l-0.2,6.8c1.4-0.4,2.9-0.7,4.3-1.2c2.5-0.6,4.3-0.7,4.7,0C214.6,120.7,214.2,121.4,212.9,121.7
	 M238.6,103.3c-4,0-8.5,0.4-15.2,1.6c2.8,1.6,3,2.5,2.6,3.7c-0.5,1.3-0.5,5.9,0.4,16.9c0.7,8.1-0.2,12.1-3.2,16.7
	c-0.9,1.4-2,1.2-2.8-0.2c-1.6-3.2-3.5-6.2-6.2-8.9c-1.3-1.2-0.6-1.8,0.8-1.1c5.5,2.2,6.5,2,7-0.9c0.6-4,0.2-15.8-0.4-20.8
	c-0.2-1.7-1-3.3-1.9-4.5c-1.1,0.2-2.1,0.5-3.1,0.7c-1.3,0.3-2.9,0-4-0.6c-1.2-0.6-0.9-1.5,0.8-1.8c4.5-0.9,15.7-3.4,20.3-4.9
	c2-0.7,4.7-0.3,6.8,1.3C241.6,101.3,241.2,103.3,238.6,103.3 M231.3,90.1c-8.3,3.5-10.6,3.7-13.9,2.1c-1.4-0.7-1.4-1.6,0.3-2.1
	c2.6-0.7,6.3-2.2,8.6-3.1c1.3-0.5,4-0.5,5.2,0.3C232.7,88,232.8,89.5,231.3,90.1"/>
</svg>
