<svg width="158" height="158" viewBox="0 0 158 158" fill="none" xmlns="http://www.w3.org/2000/svg">
<g filter="url(#filter0_d_7_274)">
<path d="M79 98C101.091 98 119 80.0914 119 58C119 35.9086 101.091 18 79 18C56.9086 18 39 35.9086 39 58C39 80.0914 56.9086 98 79 98Z" fill="#73C1C3"/>
</g>
<path d="M90.4001 49.45C90.4001 48.1902 89.8996 46.982 89.0088 46.0912C88.118 45.2004 86.9098 44.7 85.6501 44.7H68.55C67.2903 44.7 66.0821 45.2004 65.1913 46.0912C64.3005 46.982 63.8 48.1902 63.8 49.45V62.75C63.8 64.0097 64.3005 65.2179 65.1913 66.1087C66.0821 66.9995 67.2903 67.5 68.55 67.5H85.6501C86.9098 67.5 88.118 66.9995 89.0088 66.1087C89.8996 65.2179 90.4001 64.0097 90.4001 62.75V49.45ZM77.5827 57.8689L88.5001 52.2259V62.75C88.5001 63.5058 88.1998 64.2307 87.6653 64.7652C87.1308 65.2997 86.4059 65.6 85.6501 65.6H68.55C67.7942 65.6 67.0693 65.2997 66.5348 64.7652C66.0003 64.2307 65.7 63.5058 65.7 62.75V52.2297L76.6175 57.8689L76.7733 57.9411C76.9051 57.9896 77.0461 58.0083 77.1861 57.9959C77.326 57.9834 77.4615 57.94 77.5827 57.8689ZM68.55 46.6H85.6501C86.4059 46.6 87.1308 46.9002 87.6653 47.4347C88.1998 47.9692 88.5001 48.6941 88.5001 49.45V50.0219L77.1 55.948L65.7 50.0238V49.45C65.7 48.6941 66.0003 47.9692 66.5348 47.4347C67.0693 46.9002 67.7942 46.6 68.55 46.6Z" fill="white"/>
<path d="M72.35 71.2999C71.6125 71.3005 70.885 71.1291 70.2254 70.7993C69.5657 70.4695 68.9921 69.9903 68.55 69.4H85.65C87.4137 69.4 89.1052 68.6993 90.3523 67.4522C91.5994 66.2051 92.3 64.5136 92.3 62.75V49.45C93.4533 50.3164 94.2 51.6958 94.2 53.25V62.75C94.2 65.0176 93.2992 67.1923 91.6958 68.7957C90.0924 70.3991 87.9177 71.2999 85.65 71.2999H72.35Z" fill="white"/>
<defs>
<filter id="filter0_d_7_274" x="0.425003" y="0.425003" width="157.15" height="157.15" filterUnits="userSpaceOnUse" color-interpolation-filters="sRGB">
<feFlood flood-opacity="0" result="BackgroundImageFix"/>
<feColorMatrix in="SourceAlpha" type="matrix" values="0 0 0 0 0 0 0 0 0 0 0 0 0 0 0 0 0 0 127 0" result="hardAlpha"/>
<feOffset dy="21"/>
<feGaussianBlur stdDeviation="19.2875"/>
<feColorMatrix type="matrix" values="0 0 0 0 0.45098 0 0 0 0 0.756863 0 0 0 0 0.764706 0 0 0 0.31 0"/>
<feBlend mode="normal" in2="BackgroundImageFix" result="effect1_dropShadow_7_274"/>
<feBlend mode="normal" in="SourceGraphic" in2="effect1_dropShadow_7_274" result="shape"/>
</filter>
</defs>
</svg>
