<svg width="158" height="158" viewBox="0 0 158 158" fill="none" xmlns="http://www.w3.org/2000/svg">
<g filter="url(#filter0_d_7_267)">
<path d="M79 98C101.091 98 119 80.0914 119 58C119 35.9086 101.091 18 79 18C56.9086 18 39 35.9086 39 58C39 80.0914 56.9086 98 79 98Z" fill="#73C1C3"/>
</g>
<path d="M79.0001 41.3333C71.6484 41.3333 65.6668 47.3149 65.6668 54.6583C65.6184 65.3999 78.4934 74.3066 79.0001 74.6666C79.0001 74.6666 92.3818 65.3999 92.3334 54.6666C92.3334 47.3149 86.3518 41.3333 79.0001 41.3333ZM79.0001 61.3333C75.3168 61.3333 72.3334 58.3499 72.3334 54.6666C72.3334 50.9833 75.3168 47.9999 79.0001 47.9999C82.6834 47.9999 85.6668 50.9833 85.6668 54.6666C85.6668 58.3499 82.6834 61.3333 79.0001 61.3333Z" fill="#FEFFFF"/>
<defs>
<filter id="filter0_d_7_267" x="0.425003" y="0.425003" width="157.15" height="157.15" filterUnits="userSpaceOnUse" color-interpolation-filters="sRGB">
<feFlood flood-opacity="0" result="BackgroundImageFix"/>
<feColorMatrix in="SourceAlpha" type="matrix" values="0 0 0 0 0 0 0 0 0 0 0 0 0 0 0 0 0 0 127 0" result="hardAlpha"/>
<feOffset dy="21"/>
<feGaussianBlur stdDeviation="19.2875"/>
<feColorMatrix type="matrix" values="0 0 0 0 0.45098 0 0 0 0 0.756863 0 0 0 0 0.764706 0 0 0 0.31 0"/>
<feBlend mode="normal" in2="BackgroundImageFix" result="effect1_dropShadow_7_267"/>
<feBlend mode="normal" in="SourceGraphic" in2="effect1_dropShadow_7_267" result="shape"/>
</filter>
</defs>
</svg>
