<svg width="20" height="20" viewBox="0 0 20 20" fill="none" xmlns="http://www.w3.org/2000/svg">
<path d="M19.7423 7.75543C19.6804 7.56208 19.518 7.42397 19.3207 7.3924L13.4421 6.54006L10.7967 1.11431C10.7078 0.932793 10.526 0.818359 10.3288 0.818359C10.1315 0.818359 9.94977 0.932793 9.86081 1.11826L7.25025 6.5598L1.37165 7.45159C1.17441 7.48316 1.01198 7.62127 0.950096 7.81462C0.888216 8.00798 0.942361 8.22106 1.08546 8.35917L5.35131 12.5775L4.3651 18.5517C4.33029 18.7529 4.41151 18.9542 4.57394 19.0726C4.6629 19.1397 4.77118 19.1752 4.87947 19.1752C4.96456 19.1752 5.04578 19.1554 5.12313 19.112L10.3713 16.2749L15.635 19.0805C15.7123 19.1199 15.7936 19.1397 15.8748 19.1397C16.161 19.1397 16.3969 18.8989 16.3969 18.6069C16.3969 18.5635 16.393 18.5241 16.3814 18.4846L15.3643 12.5459L19.603 8.30393C19.7539 8.16187 19.8042 7.94879 19.7423 7.75543Z" fill="#DA5636"/>
</svg>
